<?xml version="1.0" encoding="utf-8"?>
<!-- Generator: Adobe Illustrator 25.1.0, SVG Export Plug-In . SVG Version: 6.00 Build 0)  -->
<svg version="1.0" id="Layer_1" xmlns="http://www.w3.org/2000/svg" xmlns:xlink="http://www.w3.org/1999/xlink" x="0px" y="0px"
	 viewBox="0 0 280 300" enable-background="new 0 0 280 300" xml:space="preserve">
<g>
</g>
<g>
	<g>
		<polygon fill="#0066B2" points="126.4,182.06 109.72,182.06 120.15,117.98 136.83,117.98 		"/>
		<path fill="#0066B2" d="M95.69,117.98l-15.91,44.07l-1.88-9.49l0,0l-5.61-28.81c0,0-0.68-5.77-7.91-5.77H38.08l-0.31,1.08
			c0,0,8.04,1.67,17.45,7.33l14.49,55.67H87.1l26.54-64.08H95.69z"/>
		<path fill="#0066B2" d="M226.91,182.06h15.32l-13.36-64.08h-13.41c-6.19,0-7.7,4.78-7.7,4.78l-24.88,59.3h17.39l3.48-9.52h21.21
			L226.91,182.06z M208.55,159.39l8.77-23.98l4.93,23.98H208.55z"/>
		<path fill="#0066B2" d="M184.18,133.39l2.38-13.76c0,0-7.35-2.79-15-2.79c-8.28,0-27.94,3.62-27.94,21.21
			c0,16.56,23.07,16.76,23.07,25.45c0,8.69-20.7,7.14-27.53,1.66l-2.48,14.39c0,0,7.45,3.62,18.83,3.62
			c11.38,0,28.56-5.9,28.56-21.94c0-16.66-23.28-18.21-23.28-25.45C160.79,128.53,177.04,129.46,184.18,133.39z"/>
	</g>
	<path fill="#F9A533" d="M77.9,152.57l-5.61-28.81c0,0-0.68-5.77-7.91-5.77H38.08l-0.31,1.08c0,0,12.64,2.62,24.76,12.43
		C74.12,140.88,77.9,152.57,77.9,152.57z"/>
</g>
</svg>
